name rise42.5664peak47.7979fall81.9185.mot
datacolumns 19
datarows 30
range 7.43330400000000 7.48163500000000
endheader
time	ground_force1_vx	ground_force1_vy	ground_force1_vz	ground_force1_px	ground_force1_py	ground_force1_pz	ground_force2_vx	ground_force2_vy	ground_force2_vz	ground_force2_px	ground_force2_py	ground_force2_pz	ground_torque1_x	ground_torque1_y	ground_torque1_z	ground_torque2_x	ground_torque2_y	ground_torque2_z	
7.43330400000000	9.60260800000000	712.27852700000005	41.51905500000000	0.18180200000000	0.00000000000000	0.09786800000000	0.00000000000000	0.00000000000000	0.00000000000000	0.00000000000000	0.00000000000000	0.00000000000000	0.00000000000000	12.63380300000000	0.00000000000000	0.00000000000000	0.00000000000000	0.00000000000000	
7.43496800000000	9.24929000000000	713.03288599999996	41.45053900000000	0.18096100000000	0.00000000000000	0.09785200000000	0.00000000000000	0.00000000000000	0.00000000000000	0.00000000000000	0.00000000000000	0.00000000000000	0.00000000000000	12.62874100000000	0.00000000000000	0.00000000000000	0.00000000000000	0.00000000000000	
7.43663300000000	8.88697000000000	713.81214699999998	41.38369100000000	0.18010300000000	0.00000000000000	0.09783900000000	0.00000000000000	0.00000000000000	0.00000000000000	0.00000000000000	0.00000000000000	0.00000000000000	0.00000000000000	12.62617100000000	0.00000000000000	0.00000000000000	0.00000000000000	0.00000000000000	
7.43830600000000	8.51543600000000	714.61493700000005	41.31841500000000	0.17922900000000	0.00000000000000	0.09782700000000	0.00000000000000	0.00000000000000	0.00000000000000	0.00000000000000	0.00000000000000	0.00000000000000	0.00000000000000	12.62613500000000	0.00000000000000	0.00000000000000	0.00000000000000	0.00000000000000	
7.43996900000000	8.13451200000000	715.43994399999997	41.25462000000000	0.17834000000000	0.00000000000000	0.09781600000000	0.00000000000000	0.00000000000000	0.00000000000000	0.00000000000000	0.00000000000000	0.00000000000000	0.00000000000000	12.62867800000000	0.00000000000000	0.00000000000000	0.00000000000000	0.00000000000000	
7.44163900000000	7.74405600000000	716.28591800000004	41.19222700000000	0.17743600000000	0.00000000000000	0.09780800000000	0.00000000000000	0.00000000000000	0.00000000000000	0.00000000000000	0.00000000000000	0.00000000000000	0.00000000000000	12.63384400000000	0.00000000000000	0.00000000000000	0.00000000000000	0.00000000000000	
7.44330700000000	7.34396200000000	717.15167199999996	41.13116500000000	0.17651900000000	0.00000000000000	0.09780000000000	0.00000000000000	0.00000000000000	0.00000000000000	0.00000000000000	0.00000000000000	0.00000000000000	0.00000000000000	12.64167800000000	0.00000000000000	0.00000000000000	0.00000000000000	0.00000000000000	
7.44497100000000	6.93415500000000	718.03608499999996	41.07137200000000	0.17558900000000	0.00000000000000	0.09779500000000	0.00000000000000	0.00000000000000	0.00000000000000	0.00000000000000	0.00000000000000	0.00000000000000	0.00000000000000	12.65222200000000	0.00000000000000	0.00000000000000	0.00000000000000	0.00000000000000	
7.44663900000000	6.51459700000000	718.93809999999996	41.01279800000000	0.17464800000000	0.00000000000000	0.09779000000000	0.00000000000000	0.00000000000000	0.00000000000000	0.00000000000000	0.00000000000000	0.00000000000000	0.00000000000000	12.66552000000000	0.00000000000000	0.00000000000000	0.00000000000000	0.00000000000000	
7.44830500000000	6.08528300000000	719.85673099999997	40.95540100000000	0.17369800000000	0.00000000000000	0.09778700000000	0.00000000000000	0.00000000000000	0.00000000000000	0.00000000000000	0.00000000000000	0.00000000000000	0.00000000000000	12.68161100000000	0.00000000000000	0.00000000000000	0.00000000000000	0.00000000000000	
7.44997100000000	5.64624200000000	720.79105400000003	40.89914700000000	0.17273800000000	0.00000000000000	0.09778500000000	0.00000000000000	0.00000000000000	0.00000000000000	0.00000000000000	0.00000000000000	0.00000000000000	0.00000000000000	12.70053100000000	0.00000000000000	0.00000000000000	0.00000000000000	0.00000000000000	
7.45163900000000	5.19753400000000	721.74021700000003	40.84401400000000	0.17177000000000	0.00000000000000	0.09778400000000	0.00000000000000	0.00000000000000	0.00000000000000	0.00000000000000	0.00000000000000	0.00000000000000	0.00000000000000	12.72231400000000	0.00000000000000	0.00000000000000	0.00000000000000	0.00000000000000	
7.45330600000000	4.73925200000000	722.70343100000002	40.78999000000000	0.17079700000000	0.00000000000000	0.09778400000000	0.00000000000000	0.00000000000000	0.00000000000000	0.00000000000000	0.00000000000000	0.00000000000000	0.00000000000000	12.74699000000000	0.00000000000000	0.00000000000000	0.00000000000000	0.00000000000000	
7.45497100000000	4.27152100000000	723.67997600000001	40.73707100000000	0.16981800000000	0.00000000000000	0.09778400000000	0.00000000000000	0.00000000000000	0.00000000000000	0.00000000000000	0.00000000000000	0.00000000000000	0.00000000000000	12.77458400000000	0.00000000000000	0.00000000000000	0.00000000000000	0.00000000000000	
7.45663900000000	3.79449400000000	724.66919499999995	40.68526200000000	0.16883500000000	0.00000000000000	0.09778600000000	0.00000000000000	0.00000000000000	0.00000000000000	0.00000000000000	0.00000000000000	0.00000000000000	0.00000000000000	12.80511400000000	0.00000000000000	0.00000000000000	0.00000000000000	0.00000000000000	
7.45830300000000	3.30835500000000	725.67049599999996	40.63458100000000	0.16785000000000	0.00000000000000	0.09778900000000	0.00000000000000	0.00000000000000	0.00000000000000	0.00000000000000	0.00000000000000	0.00000000000000	0.00000000000000	12.83859600000000	0.00000000000000	0.00000000000000	0.00000000000000	0.00000000000000	
7.45997300000000	2.81331600000000	726.68334900000002	40.58505100000000	0.16686400000000	0.00000000000000	0.09779200000000	0.00000000000000	0.00000000000000	0.00000000000000	0.00000000000000	0.00000000000000	0.00000000000000	0.00000000000000	12.87503800000000	0.00000000000000	0.00000000000000	0.00000000000000	0.00000000000000	
7.46164200000000	2.30961300000000	727.70728399999996	40.53670700000000	0.16587800000000	0.00000000000000	0.09779500000000	0.00000000000000	0.00000000000000	0.00000000000000	0.00000000000000	0.00000000000000	0.00000000000000	0.00000000000000	12.91444100000000	0.00000000000000	0.00000000000000	0.00000000000000	0.00000000000000	
7.46330600000000	1.79751100000000	728.74188700000002	40.48959100000000	0.16489300000000	0.00000000000000	0.09779900000000	0.00000000000000	0.00000000000000	0.00000000000000	0.00000000000000	0.00000000000000	0.00000000000000	0.00000000000000	12.95679900000000	0.00000000000000	0.00000000000000	0.00000000000000	0.00000000000000	
7.46496700000000	1.27729600000000	729.78680199999997	40.44375500000000	0.16391000000000	0.00000000000000	0.09780400000000	0.00000000000000	0.00000000000000	0.00000000000000	0.00000000000000	0.00000000000000	0.00000000000000	0.00000000000000	13.00209900000000	0.00000000000000	0.00000000000000	0.00000000000000	0.00000000000000	
7.46663300000000	0.74928100000000	730.84172400000000	40.39926100000000	0.16293100000000	0.00000000000000	0.09780900000000	0.00000000000000	0.00000000000000	0.00000000000000	0.00000000000000	0.00000000000000	0.00000000000000	0.00000000000000	13.05032100000000	0.00000000000000	0.00000000000000	0.00000000000000	0.00000000000000	
7.46830500000000	0.21379500000000	731.90639799999997	40.35617600000000	0.16195600000000	0.00000000000000	0.09781400000000	0.00000000000000	0.00000000000000	0.00000000000000	0.00000000000000	0.00000000000000	0.00000000000000	0.00000000000000	13.10143500000000	0.00000000000000	0.00000000000000	0.00000000000000	0.00000000000000	
7.46997400000000	-0.32880800000000	732.98061499999994	40.31457800000000	0.16098700000000	0.00000000000000	0.09781900000000	0.00000000000000	0.00000000000000	0.00000000000000	0.00000000000000	0.00000000000000	0.00000000000000	0.00000000000000	13.15540500000000	0.00000000000000	0.00000000000000	0.00000000000000	0.00000000000000	
7.47164000000000	-0.87815800000000	734.06420700000001	40.27455200000000	0.16002400000000	0.00000000000000	0.09782500000000	0.00000000000000	0.00000000000000	0.00000000000000	0.00000000000000	0.00000000000000	0.00000000000000	0.00000000000000	13.21218500000000	0.00000000000000	0.00000000000000	0.00000000000000	0.00000000000000	
7.47330300000000	-1.43386800000000	735.15704800000003	40.23619100000000	0.15906800000000	0.00000000000000	0.09783100000000	0.00000000000000	0.00000000000000	0.00000000000000	0.00000000000000	0.00000000000000	0.00000000000000	0.00000000000000	13.27172100000000	0.00000000000000	0.00000000000000	0.00000000000000	0.00000000000000	
7.47497300000000	-1.99553500000000	736.25904400000002	40.19959400000000	0.15812000000000	0.00000000000000	0.09783600000000	0.00000000000000	0.00000000000000	0.00000000000000	0.00000000000000	0.00000000000000	0.00000000000000	0.00000000000000	13.33394800000000	0.00000000000000	0.00000000000000	0.00000000000000	0.00000000000000	
7.47663700000000	-2.56274100000000	737.37013300000001	40.16487100000000	0.15718100000000	0.00000000000000	0.09784200000000	0.00000000000000	0.00000000000000	0.00000000000000	0.00000000000000	0.00000000000000	0.00000000000000	0.00000000000000	13.39879400000000	0.00000000000000	0.00000000000000	0.00000000000000	0.00000000000000	
7.47830300000000	-3.13505800000000	738.49027899999999	40.13213400000000	0.15625000000000	0.00000000000000	0.09784800000000	0.00000000000000	0.00000000000000	0.00000000000000	0.00000000000000	0.00000000000000	0.00000000000000	0.00000000000000	13.46617900000000	0.00000000000000	0.00000000000000	0.00000000000000	0.00000000000000	
7.47996900000000	-3.71204400000000	739.61947099999998	40.10150600000000	0.15532900000000	0.00000000000000	0.09785400000000	0.00000000000000	0.00000000000000	0.00000000000000	0.00000000000000	0.00000000000000	0.00000000000000	0.00000000000000	13.53601200000000	0.00000000000000	0.00000000000000	0.00000000000000	0.00000000000000	
7.48163500000000	-4.29325100000000	740.75771199999997	40.07311200000000	0.15441800000000	0.00000000000000	0.09786000000000	0.00000000000000	0.00000000000000	0.00000000000000	0.00000000000000	0.00000000000000	0.00000000000000	0.00000000000000	13.60819400000000	0.00000000000000	0.00000000000000	0.00000000000000	0.00000000000000	
